<?xml version="1.0" standalone="no"?>
<!DOCTYPE svg PUBLIC "-//W3C//DTD SVG 20010904//EN"
 "http://www.w3.org/TR/2001/REC-SVG-20010904/DTD/svg10.dtd">
<svg version="1.0" xmlns="http://www.w3.org/2000/svg"
 width="149.000000pt" height="48.000000pt" viewBox="0 0 149.000000 48.000000"
 preserveAspectRatio="xMidYMid meet">

<g transform="translate(0.000000,48.000000) scale(0.100000,-0.100000)"
fill="#000000" stroke="none">
<path d="M0 240 l0 -240 133 0 c110 1 128 3 110 13 -22 12 -21 14 32 45 l55
33 0 88 c0 81 9 111 32 111 4 0 8 -51 8 -113 l0 -114 -50 -27 c-27 -15 -50
-29 -50 -32 0 -2 275 -4 610 -4 l610 0 0 240 0 240 -745 0 -745 0 0 -240z
m300 192 c0 -4 -24 -22 -53 -39 l-54 -32 1 -87 c1 -79 -1 -88 -22 -102 l-22
-14 0 115 0 115 57 35 c44 27 62 33 75 26 10 -5 18 -13 18 -17z m112 -63 l48
-31 0 -113 c0 -113 -4 -125 -38 -125 -4 0 -6 45 -5 100 3 104 -1 116 -48 141
-32 17 -83 -18 -87 -59 -2 -24 -8 -32 -23 -32 -16 0 -19 7 -19 43 0 40 3 43
53 74 28 17 56 32 61 32 5 1 31 -13 58 -30z m-270 -247 c25 -15 30 -15 63 1
29 14 35 22 35 47 0 23 4 30 20 30 17 0 20 -7 20 -43 0 -40 -2 -44 -52 -74
-50 -30 -54 -31 -83 -16 -86 44 -85 43 -85 162 0 101 1 110 23 124 l22 15 5
-115 c5 -111 6 -115 32 -131z m795 226 c7 -17 6 -29 -4 -45 -13 -19 -12 -25 2
-47 17 -26 17 -26 -8 -26 -14 0 -27 5 -29 11 -3 9 -9 9 -25 0 -31 -16 -58 -14
-74 7 -13 15 -12 16 3 3 15 -11 24 -11 47 -1 43 17 62 43 64 84 2 41 10 46 24
14z m-48 -55 c-10 -12 -15 -9 -32 16 -10 17 -24 28 -30 25 -7 -3 -3 2 8 11 19
15 21 14 43 -11 18 -21 20 -29 11 -41z m181 11 c0 -2 -11 -2 -25 2 -34 8 -33
-13 1 -26 36 -14 29 -45 -10 -45 -17 0 -31 6 -34 15 -4 12 -2 13 9 3 18 -18
39 -16 39 2 0 8 -6 15 -14 15 -7 0 -20 7 -27 16 -11 14 -10 18 5 30 13 9 24
10 37 3 11 -5 19 -12 19 -15z m-479 -24 c12 0 19 7 19 20 0 11 5 20 10 20 6 0
10 -20 10 -45 0 -25 -4 -45 -10 -45 -5 0 -10 9 -10 20 0 29 -37 27 -43 -2 -2
-13 -4 0 -4 27 0 28 2 40 4 28 3 -15 12 -23 24 -23z m139 31 c-17 -5 -21 -9
-12 -15 17 -10 15 -26 -3 -26 -27 0 -16 -29 13 -33 22 -3 20 -4 -10 -6 -34 -1
-38 2 -38 24 0 16 6 25 15 25 18 0 19 12 3 28 -9 9 -4 12 23 11 30 -1 31 -2 9
-8z m458 -2 c-12 -6 -18 -22 -18 -45 0 -21 -4 -33 -10 -29 -5 3 -7 21 -4 40 4
26 1 34 -13 38 -10 3 0 5 22 6 32 0 36 -2 23 -10z m134 -34 c10 -25 13 -45 8
-45 -6 0 -10 7 -10 15 0 19 -5 19 -35 -1 -14 -9 -25 -12 -25 -6 0 17 30 82 38
82 4 0 15 -20 24 -45z m133 34 c4 -5 0 -18 -9 -28 -14 -16 -14 -19 1 -34 10
-10 12 -17 6 -17 -7 0 -18 9 -27 21 l-14 21 -5 -23 c-4 -23 -4 -22 -6 3 0 14
5 28 12 31 9 3 9 7 -2 20 -12 15 -11 17 12 17 14 0 29 -5 32 -11z m-238 -155
c-2 -37 -6 -41 -25 -22 -10 10 -15 10 -22 -2 -6 -10 -9 -2 -8 26 0 38 2 40 29
36 26 -4 29 -8 26 -38z m107 40 c24 -9 19 -23 -6 -18 l-23 5 23 -17 c12 -9 22
-23 22 -30 0 -17 -46 -19 -56 -3 -4 8 1 9 17 4 l24 -7 -22 24 c-18 19 -20 27
-11 36 14 14 12 14 32 6z m-726 -16 c9 -9 12 -9 12 0 0 7 5 12 11 12 6 0 9
-14 7 -32 -3 -29 -6 -33 -33 -33 -27 0 -30 4 -33 33 -3 34 13 43 36 20z m126
-10 l16 -22 0 22 c0 12 5 22 10 22 6 0 10 -16 10 -35 0 -34 -12 -46 -26 -24
-4 8 -9 8 -17 0 -19 -19 -27 -12 -27 24 0 40 12 45 34 13z m122 -13 c-1 -19
-6 -35 -12 -35 -6 0 -11 16 -12 35 -1 23 3 35 12 35 8 0 12 -13 12 -35z m128
16 c-3 -9 -9 -24 -11 -33 -8 -28 -30 -21 -42 13 -6 18 -11 33 -11 35 0 2 16 3
35 2 29 -1 35 -5 29 -17z m106 9 l-25 -7 25 -11 c14 -6 19 -11 11 -11 -11 -1
-11 -4 -1 -16 11 -13 8 -15 -18 -15 -29 0 -31 2 -30 35 1 32 4 35 32 34 30 -1
30 -1 6 -9z m368 3 c-21 -5 -24 -23 -5 -23 7 0 13 -9 13 -20 0 -15 -7 -20 -28
-20 -26 0 -28 3 -25 35 2 32 5 35 32 34 17 -1 22 -3 13 -6z"/>
<path d="M1291 284 c0 -11 3 -14 6 -6 3 7 2 16 -1 19 -3 4 -6 -2 -5 -13z"/>
<path d="M1185 170 c3 -5 11 -10 16 -10 6 0 7 5 4 10 -3 6 -11 10 -16 10 -6 0
-7 -4 -4 -10z"/>
<path d="M580 151 c0 -12 6 -21 15 -21 8 0 15 4 15 9 0 5 -7 14 -15 21 -13 10
-15 9 -15 -9z"/>
<path d="M936 155 c4 -8 8 -15 10 -15 2 0 4 7 4 15 0 8 -4 15 -10 15 -5 0 -7
-7 -4 -15z"/>
</g>
</svg>
